# xmcd
#
# Track frame offsets:
# 150
# 13899
# 24570
# 41632
# 55394
# 67840
# 77248
# 90706
# 104310
# 116849
#
# Disc length: 1729 seconds
#
# Revision: 1
# Processed by: cddbd v1.5.2PL0 Copyright (c) Steve Scherf et al.
# Submitted via: plextools 3.16
#
DISCID=8106bf0a
DTITLE=Johnny Cash - Super Hits II
DYEAR=2008
DGENRE=Country
TTITLE0=Johnny Cash - Don't Take Your Guns To Town
TTITLE1=Johnny Cash - Daddy Sang Bass
TTITLE2=Johnny Cash - (Ghost) Riders In The Sky
TTITLE3=Johnny Cash - It Ain't Me, Babe
TTITLE4=Johnny Cash - The Matador
TTITLE5=Johnny Cash - I Got Stripes
TTITLE6=Johnny Cash - Tennessee Flat Top Box
TTITLE7=Johnny Cash - If I Were A Carpenter
TTITLE8=Johnny Cash - Any Old Wind That Blows
TTITLE9=Johnny Cash - Man In Black
EXTD=
EXTT0=
EXTT1=
EXTT2=
EXTT3=
EXTT4=
EXTT5=
EXTT6=
EXTT7=
EXTT8=
EXTT9=
PLAYORDER=
